<?xml version="1.0" encoding="UTF-8" standalone="no"?>
<!-- Created with Inkscape (http://www.inkscape.org/) -->

<svg
   width="27.845503mm"
   height="18.533905mm"
   viewBox="0 0 27.845503 18.533905"
   version="1.1"
   id="svg1"
   inkscape:version="1.3 (0e150ed6c4, 2023-07-21)"
   sodipodi:docname="bull-logo.svg"
   xmlns:inkscape="http://www.inkscape.org/namespaces/inkscape"
   xmlns:sodipodi="http://sodipodi.sourceforge.net/DTD/sodipodi-0.dtd"
   xmlns="http://www.w3.org/2000/svg"
   xmlns:svg="http://www.w3.org/2000/svg">
  <sodipodi:namedview
     id="namedview1"
     pagecolor="#ffffff"
     bordercolor="#000000"
     borderopacity="0.25"
     inkscape:showpageshadow="2"
     inkscape:pageopacity="0.0"
     inkscape:pagecheckerboard="true"
     inkscape:deskcolor="#d1d1d1"
     inkscape:document-units="mm"
     inkscape:zoom="8.1031986"
     inkscape:cx="59.420979"
     inkscape:cy="49.424927"
     inkscape:window-width="2560"
     inkscape:window-height="1351"
     inkscape:window-x="2391"
     inkscape:window-y="330"
     inkscape:window-maximized="1"
     inkscape:current-layer="layer1" />
  <defs
     id="defs1" />
  <g
     inkscape:label="Réteg 1"
     inkscape:groupmode="layer"
     id="layer1"
     transform="translate(-126.73543,-143.66874)">
    <path
       d="m 150.54052,147.85833 c 0.27623,0.018 2.84128,-0.0843 4.04037,-0.89182 0.009,0.17639 -1.38924,1.33385 -2.13219,1.72649 -0.3489,0.18451 -0.98919,0.40217 -1.37372,0.43639 -0.38488,0.0339 -1.03187,-0.15064 -0.94685,-0.55809 0.0317,-0.15346 0.25576,-0.7232 0.41239,-0.71297"
       style="fill:#e3dedb;fill-opacity:1;fill-rule:nonzero;stroke:none;stroke-width:0.0352778"
       id="path242" />
    <path
       d="m 130.82518,152.40599 -4.08975,-2.26695 5.07683,-2.15935 -3.63079,-2.3869 -0.0296,0.641 -1.13312,-1.43122 1.92652,0.36971 -0.67416,0.16687 4.5459,2.68322 -4.14373,2.16041 c 0,0 2.04505,1.10208 2.37913,1.17687 0,0 -0.17215,0.3803 -0.19896,0.50095 -0.0314,0.14075 -0.0282,0.54539 -0.0282,0.54539"
       style="fill:#e3dedb;fill-opacity:1;fill-rule:nonzero;stroke:none;stroke-width:0.0352778"
       id="path244" />
    <path
       d="m 136.26537,156.48163 c -0.68686,0.51294 -1.07632,2.04012 -1.12818,2.72556 -0.0413,0.53975 -0.0882,0.66887 0.0861,0.87771 0.0138,0.0166 -0.0307,0.0646 -0.45578,0.14429 0,0 0.57326,0.0176 0.60254,0.0385 0.44168,0.31327 0.66216,1.05058 0.5588,1.15147 -0.2159,0.21131 -2.28177,0.40005 -2.31316,-0.0349 -0.0194,-0.26494 0.0335,-0.71614 -0.0233,-0.96732 -0.0656,-0.28998 -0.18979,-0.23389 -0.19614,-0.53234 -0.012,-0.55528 0.66216,-2.0761 0.86677,-2.58516 0.64982,-1.61466 -0.74436,-1.74731 -0.92392,-2.68852 -0.12383,-0.64735 0.34466,-0.88124 0.68545,-1.45133 -0.78423,0.7553 -1.22979,1.20545 -0.80469,2.06234 0.3496,0.70591 0.69321,0.60996 0.78987,1.74414 0.0296,0.34713 -0.67592,2.22461 -0.8315,2.52941 -0.0473,0.0924 -0.16616,0.26776 -0.16616,0.26776 -0.0737,-0.0416 -0.11994,-0.2734 -0.11994,-0.2734 0,0 -0.025,0.53058 0.12418,0.64382 0.0861,0.066 0.25012,0.0596 0.35242,0.15628 0.15417,0.1457 0.15099,0.59831 0.1083,0.78246 -0.11359,0.49036 -0.82514,0.25259 -1.02517,0.10477 -0.39934,-0.29562 -0.99871,-1.06644 -0.84949,-1.55786 0.0392,-0.12982 0.31327,0.0113 0.43286,-0.24448 -0.12594,0.12101 -0.58702,0.055 -0.63394,0.21096 -0.15593,0.51823 0.62195,1.69863 1.06433,1.95651 0.42263,0.24589 0.83291,-0.0459 0.85831,0.32032 0.0324,0.45967 2.62325,0.48472 3.19722,-0.11924 0.10337,-0.10865 -0.69673,-1.23437 -0.82691,-1.39171 -0.26917,-0.32526 -0.53304,-0.16157 -0.4833,-0.83749 0.0533,-0.72461 0.92463,-2.40383 1.53529,-2.71286 0.39017,-0.19756 1.14088,-0.36477 1.73143,-0.6925 0.48966,-0.27129 1.22026,-0.97261 1.28588,-1.02835 -2.07963,1.46438 -2.54918,0.69321 -3.49815,1.40123"
       style="fill:#e3dedb;fill-opacity:1;fill-rule:nonzero;stroke:none;stroke-width:0.0352778"
       id="path246" />
    <path
       d="m 144.59939,157.29937 c -0.38664,-0.58667 -1.90359,-1.39312 -2.39889,-1.39171 -1.16169,0.003 -1.69368,0.97967 -2.85467,1.02129 -0.83432,0.0296 -1.50637,-0.1464 -1.83727,-0.31855 -0.0631,0.0681 0.74189,0.56409 1.72579,0.63888 1.53917,0.11641 2.23449,-0.56198 3.42124,-0.56515 0.49106,-0.001 1.54199,0.25894 1.9438,0.61524"
       style="fill:#e3dedb;fill-opacity:1;fill-rule:nonzero;stroke:none;stroke-width:0.0352778"
       id="path248" />
    <path
       d="m 146.52133,154.65989 c 0.44802,-0.16969 0.54962,0.59408 0.67804,0.78422 -0.1143,-0.33655 0.1217,-0.85054 -0.50483,-1.14617 -0.53058,-0.25083 -1.97591,-0.65829 -2.35267,-1.13842 -0.50554,-0.64487 0.29033,-1.93216 0.51258,-2.0962 -0.4445,0.13935 -1.63759,1.44568 -1.49895,2.23555 0.0949,0.53658 2.49202,0.97085 2.76895,1.09361 0.30939,0.13723 0.53058,0.6664 0.56938,1.07209 0.0797,0.83503 -0.29668,1.86479 -0.66498,2.38161 -0.58985,0.82691 -0.85937,1.98931 -1.74872,2.67511 -0.55033,-0.34114 -1.35431,-0.40675 -1.35431,-0.40675 -0.18874,-0.0857 0.29703,-0.7934 0.29703,-0.7934 -0.31785,0.27023 -0.59831,0.76906 -0.59831,0.76906 -0.30444,0.0268 -1.00859,0.0529 -1.13947,-0.10584 -0.13053,-0.15875 0.0797,-0.48718 0.26,-0.81068 0.30021,-0.5394 0.95179,-1.38677 1.53,-1.07597 0.34431,0.18556 0.89217,0.95708 1.27458,0.89464 0.26176,-0.0427 0.32068,-0.48119 0.26458,-0.9331 -0.0494,0.34537 -0.23883,0.6731 -0.51717,0.72002 -0.39017,0.0663 -0.60431,-0.66357 -0.95638,-0.85936 -0.59055,-0.32879 -1.38253,0.23354 -1.81821,0.80504 -0.44839,0.58808 -0.98037,1.30457 -0.61102,1.52047 0.272,0.1591 1.5233,0.13864 1.82563,0.12312 0.77047,-0.0409 1.27317,0.42051 1.5501,0.52423 1.5875,-0.80504 1.62631,-2.09868 2.2285,-2.97286 0.37677,-0.54646 0.48719,-1.43228 0.4057,-2.31493 -0.0342,-0.37042 -0.1958,-0.7045 -0.40005,-0.94509"
       style="fill:#e3dedb;fill-opacity:1;fill-rule:nonzero;stroke:none;stroke-width:0.0352778"
       id="path250" />
    <path
       d="m 143.30858,144.45332 c -1.76071,-0.93169 -4.7999,-0.42968 -5.11034,-0.26176 -0.67028,0.36195 -0.49389,1.46226 -0.82691,2.1911 -0.49248,1.07633 -1.63407,1.49966 -2.68358,1.87678 -0.66852,0.24059 -1.31516,0.48507 -1.75225,1.0862 -0.14817,0.20391 -0.24165,0.45121 -0.40393,0.64206 -0.26741,0.31432 -0.67663,0.42792 -1.00401,0.66569 -0.93027,0.67522 -1.04386,2.14066 -0.75247,3.3147 0.29139,1.17404 0.71614,1.62101 0.64699,2.83457 -0.0208,0.375 -0.39334,1.09749 -0.32279,1.26259 0.13794,0.32279 0.88547,0.21167 1.08515,0.49354 0.10266,0.14499 0.12982,0.27658 0.10936,0.39864 0.10301,-0.2406 0.12559,-0.49142 -0.0261,-0.6985 -0.19544,-0.2667 -0.78316,-0.17569 -0.91828,-0.48084 -0.0691,-0.15628 0.52141,-0.90346 0.56621,-1.25554 0.14464,-1.14123 -0.56339,-1.57727 -0.84878,-2.68781 -0.28505,-1.11054 -0.35278,-2.41547 0.55774,-3.0547 0.32067,-0.22472 1.19909,-0.0113 1.46085,-0.30904 0.15875,-0.18027 0.0875,-0.85548 0.23213,-1.04845 0.42757,-0.56868 0.86854,-0.57503 1.53458,-0.76765 1.14124,-0.32984 2.59609,-0.46425 3.07799,-1.48237 0.32597,-0.68933 -0.16757,-2.33609 0.46955,-2.71286 0.80892,-0.47837 3.21204,-0.28293 4.3942,0.31468 0.1524,-0.16087 0.35454,-0.2787 0.5147,-0.32103"
       style="fill:#e3dedb;fill-opacity:1;fill-rule:nonzero;stroke:none;stroke-width:0.0352778"
       id="path252" />
    <path
       d="m 149.79193,148.7812 c -0.0896,-0.11501 -0.28751,-0.3295 -0.40711,-0.41064 -0.36124,-0.24588 -0.82091,-0.3556 -1.32644,-0.37323 -0.0487,-0.15805 -0.42122,-0.72285 -0.64982,-0.96379 -0.69144,-0.72919 -2.30611,-1.73144 -2.50296,-1.82492 -0.12382,-0.0586 0.0579,0.63112 0.48507,0.79375 0.84949,0.3242 1.87114,0.88618 2.45745,1.99354 -0.41945,0.007 -0.68862,0.13194 -0.68862,0.13194 0,0 1.43969,-0.14922 2.14665,0.73272 0.79834,0.9966 0.59937,2.54247 0.51612,3.8668 -0.0494,0.78493 -0.0998,2.57387 -0.23178,2.73897 -0.15204,0.19085 -0.3817,0.25012 -0.60819,0.26776 -0.40393,0.0317 -1.38147,0.10442 -1.46438,0.0924 0.0469,0.0861 0.10125,0.1651 0.17886,0.21731 0.133,0.0893 1.31833,0.002 1.74943,-0.0314 0.242,-0.0183 0.49918,-0.11607 0.63218,-0.33691 0.15416,-0.25611 0.21166,-2.0006 0.26458,-2.82645 0.0889,-1.39312 0.27728,-3.00073 -0.55104,-4.06788"
       style="fill:#e3dedb;fill-opacity:1;fill-rule:nonzero;stroke:none;stroke-width:0.0352778"
       id="path254" />
    <path
       d="m 144.84422,148.16278 c -0.8509,-0.22966 -1.37513,-0.61419 -1.9057,-1.3328 -0.34255,-0.46425 -0.38418,-1.20473 -0.0692,-1.72931 0.28152,-0.46779 2.26166,-1.37125 3.41524,-1.43193 0,0 -0.63782,0.25788 -0.94968,0.45438 -0.49812,0.31433 -0.99201,0.90981 -0.78669,1.49507 0.13053,0.37324 0.49918,0.57468 0.84843,0.69815 0.34925,0.12347 0.72743,0.21414 0.99378,0.48895 0.26634,0.27517 0.17074,1.29646 -0.18733,1.41499 -0.27375,0.0907 -1.01812,0.0346 -1.3589,-0.0575"
       style="fill:#e3dedb;fill-opacity:1;fill-rule:nonzero;stroke:none;stroke-width:0.0352778"
       id="path256" />
    <path
       d="m 146.41867,150.35812 c 0.23354,0.0444 0.48189,0.24235 0.64558,0.47942 0,0 1.55928,0.043 1.57127,0.0564 0.0236,0.0261 -1.51059,0.0547 -1.51059,0.0547 0.12241,0.20778 0.4505,0.47625 0.90276,0.56515 -0.19474,0.0416 -0.7232,0.0307 -0.94404,-0.0219 -0.47272,-0.11183 -0.48295,-0.54327 -0.48295,-0.54327 -0.12841,-0.006 -1.46967,-0.0434 -1.46967,-0.0434 l 1.45768,-0.0653 c -0.0596,-0.45014 -0.17004,-0.48189 -0.17004,-0.48189"
       style="fill:#cdde87;fill-opacity:1;fill-rule:nonzero;stroke:none;stroke-width:0.0352778"
       id="path258" />
  </g>
</svg>
