<?xml version="1.0" encoding="UTF-8" standalone="no"?>
<!-- Created with Inkscape (http://www.inkscape.org/) -->

<svg
   width="392.004"
   height="70.049408"
   viewBox="0 0 103.71772 18.533905"
   version="1.1"
   id="svg1"
   inkscape:version="1.3 (0e150ed6c4, 2023-07-21)"
   sodipodi:docname="logo-1.svg"
   xmlns:inkscape="http://www.inkscape.org/namespaces/inkscape"
   xmlns:sodipodi="http://sodipodi.sourceforge.net/DTD/sodipodi-0.dtd"
   xmlns="http://www.w3.org/2000/svg"
   xmlns:svg="http://www.w3.org/2000/svg">
  <sodipodi:namedview
     id="namedview1"
     pagecolor="#ffffff"
     bordercolor="#000000"
     borderopacity="0.25"
     inkscape:showpageshadow="2"
     inkscape:pageopacity="0.0"
     inkscape:pagecheckerboard="true"
     inkscape:deskcolor="#d1d1d1"
     inkscape:document-units="mm"
     inkscape:zoom="4.0515992"
     inkscape:cx="201.52536"
     inkscape:cy="57.384748"
     inkscape:window-width="2560"
     inkscape:window-height="1351"
     inkscape:window-x="2391"
     inkscape:window-y="330"
     inkscape:window-maximized="1"
     inkscape:current-layer="layer1" />
  <defs
     id="defs1" />
  <g
     inkscape:label="Réteg 1"
     inkscape:groupmode="layer"
     id="layer1"
     transform="translate(-50.604425,-127.12466)">
    <path
       d="m 132.31411,143.02647 c -0.31009,0.20885 -0.75459,0.31292 -1.33315,0.31292 h -2.18933 v -3.175 h 2.10855 c 1.25271,0 1.87889,0.54186 1.87889,1.62489 0,0.61595 -0.15487,1.02835 -0.46496,1.23719 z m -3.52248,-7.56249 h 2.15829 c 0.92604,0 1.4097,0.40534 1.45097,1.21567 0,0.55809 -0.12417,0.94333 -0.37218,1.1564 -0.248,0.21273 -0.63253,0.31927 -1.15323,0.31927 h -2.08385 z m 3.20004,3.60292 c 0.7359,0 1.43651,-0.18274 2.10221,-0.54893 0.66533,-0.36583 0.99836,-1.10454 0.99836,-2.21685 -0.0247,-1.03329 -0.37924,-1.76213 -1.06363,-2.18581 -0.68403,-0.42369 -1.63407,-0.63571 -2.84938,-0.63571 H 125.061 l -3.5e-4,-0.005 c 0,0 -35.434768,1.55398 -35.769908,2.37419 l 35.767438,-0.0109 h 3.5e-4 v 0 l 2.2479,0.6858 c 0,0 -1.21602,0.004 -2.2479,0.0169 v 8.77676 h 5.51286 c 1.47179,0 2.6864,-0.19544 3.64349,-0.58597 0.95673,-0.39088 1.43545,-1.31374 1.43545,-2.76895 -0.0332,-1.93075 -1.25271,-2.89595 -3.65866,-2.89595"
       style="fill:#100f0d;fill-opacity:1;fill-rule:nonzero;stroke:none;stroke-width:0.0352778"
       id="path48" />
    <path
       d="m 136.64234,142.97991 v -6.1207 h 3.20005 v 5.51286 c 0,0.86431 0.53516,1.29611 1.60584,1.29611 0.53764,-0.091 0.89218,-0.28822 1.06363,-0.59232 0.17145,-0.30374 0.25753,-0.58984 0.25753,-0.85866 v -5.35799 h 2.38724 v 8.45856 h -2.38724 v -0.65723 h 0.006 c 0,0.0123 -0.12594,0.0889 -0.37817,0.22931 -0.27693,0.1531 -0.64594,0.29245 -1.10702,0.41874 -0.46073,0.12595 -1.00154,0.18909 -1.62172,0.18909 -1.07068,-0.0744 -1.84256,-0.36689 -2.31599,-0.87771 -0.47342,-0.51047 -0.71014,-1.05727 -0.71014,-1.64006"
       style="fill:#100f0d;fill-opacity:1;fill-rule:nonzero;stroke:none;stroke-width:0.0352778"
       id="path50" />
    <path
       d="M 146.50248,145.31777 V 133.4796 h 3.1997 v 11.83817 h -3.1997"
       style="fill:#100f0d;fill-opacity:1;fill-rule:nonzero;stroke:none;stroke-width:0.0352778"
       id="path52" />
    <path
       d="M 151.12211,145.31777 V 133.4796 h 3.20004 v 11.83817 h -3.20004"
       style="fill:#100f0d;fill-opacity:1;fill-rule:nonzero;stroke:none;stroke-width:0.0352778"
       id="path54" />
    <path
       d="m 85.064752,140.10865 v -0.001 l -2.12411,3.5e-4 c 0,0 1.66274,0.5842 2.07712,1.47391 v 1.52823 c -0.14468,0.0536 -0.40626,0.12206 -0.78451,0.20461 -0.37828,0.0829 -0.84434,0.12418 -1.39831,0.12418 -0.61598,-0.0579 -1.06771,-0.28751 -1.35502,-0.68827 -0.28733,-0.40111 -0.46302,-0.88088 -0.52708,-1.43898 -0.0641,-0.55809 -0.0961,-1.29787 -0.0961,-2.22003 0,-1.05833 0.18905,-1.89018 0.56733,-2.4959 0.37829,-0.60572 1.01809,-0.94968 1.91933,-1.03223 0.37193,-0.0332 0.63457,-0.0497 0.78754,-0.0497 0.63253,0 1.20195,0.061 1.70836,0.18274 0.50641,0.12206 0.93539,0.25753 1.28676,0.4064 0.35136,0.14887 0.52916,0.22331 0.5334,0.22331 l -0.50871,-2.59222 c 0,-0.0166 -0.20143,-0.0723 -0.60466,-0.16756 -0.40287,-0.0949 -0.93624,-0.17957 -1.59974,-0.254 -0.66354,-0.0744 -1.42723,-0.11184 -2.29129,-0.11184 -2.33123,0.0631 -3.90095,0.95039 -4.71841,2.65148 l 2.20282,0.67204 c 0,0 -1.41319,0.004 -2.48557,0.0205 -0.23357,0.71719 -0.36107,1.54975 -0.38146,2.49766 0,2.25707 0.41755,3.91795 1.25265,4.98264 0.83495,1.06433 2.27982,1.59667 4.33461,1.59667 0.89712,0 1.72078,-0.0744 2.47111,-0.22331 0.75032,-0.14852 1.35604,-0.31291 1.81712,-0.49283 0.46073,-0.17992 0.69144,-0.28822 0.69144,-0.32561 v -4.47111 h -2.77466"
       style="fill:#304a1f;fill-opacity:1;fill-rule:nonzero;stroke:none;stroke-width:0.0352778"
       id="path56" />
    <path
       d="m 89.240652,145.31777 v -8.45856 h 3.19969 v 0.88689 c 0.008,-0.008 0.0582,-0.0692 0.14887,-0.1831 0.091,-0.11359 0.22331,-0.2293 0.39688,-0.34713 0.17392,-0.11783 0.40534,-0.22013 0.69462,-0.30692 0.32667,-0.0991 0.70062,-0.14887 1.12254,-0.14887 0.39264,0 0.68827,0.0247 0.88653,0.0744 l 0.32879,1.87889 c -0.46708,-0.15275 -0.94051,-0.2293 -1.41993,-0.2293 -0.42193,0 -0.77717,0.0681 -1.0668,0.20461 -0.72743,0.33055 -1.0915,0.87242 -1.0915,1.62454 v 5.00451 h -3.19969"
       style="fill:#304a1f;fill-opacity:1;fill-rule:nonzero;stroke:none;stroke-width:0.0352778"
       id="path58" />
    <path
       d="m 101.4323,138.48411 c -1.01706,0 -1.525418,0.63464 -1.525418,1.90359 h 2.920648 c 0,-0.54152 -0.0931,-0.98284 -0.27905,-1.32398 -0.18626,-0.34078 -0.55809,-0.5341 -1.11618,-0.57961 z m -1.525418,3.37961 c 0,1.3395 0.593018,2.00907 1.779418,2.00907 0.79798,-0.0247 1.47178,-0.15099 2.02177,-0.37818 0.54998,-0.22754 0.92604,-0.41557 1.12853,-0.56444 l -0.35948,2.03411 c -0.23565,0.0991 -0.66569,0.22543 -1.29011,0.37818 -0.62406,0.15311 -1.36207,0.22966 -2.21368,0.22966 -0.0702,0 -0.16757,-0.004 -0.29139,-0.0127 -0.12418,-0.008 -0.22119,-0.0123 -0.2914,-0.0123 -2.430988,-0.13617 -3.658658,-1.56668 -3.683698,-4.29119 0,-1.63689 0.35242,-2.81023 1.05727,-3.51896 0.70485,-0.70908 1.68169,-1.07808 2.930168,-1.10701 0.8308,0 1.49649,0.0589 1.99673,0.17674 0.50024,0.11783 0.96132,0.38135 1.38289,0.79057 0.6036,0.58279 0.92392,1.64113 0.96132,3.175 0,0.26459 -0.01,0.49319 -0.0279,0.68545 -0.0187,0.19191 -0.0342,0.32738 -0.0466,0.40605 h -5.053898"
       style="fill:#304a1f;fill-opacity:1;fill-rule:nonzero;stroke:none;stroke-width:0.0352778"
       id="path60" />
    <path
       d="m 110.57877,138.48411 c -1.01671,0 -1.52542,0.63464 -1.52542,1.90359 h 2.921 c 0,-0.54152 -0.0931,-0.98284 -0.27904,-1.32398 -0.18627,-0.34078 -0.5581,-0.5341 -1.11654,-0.57961 z m -1.52542,3.37961 c 0,1.3395 0.59338,2.00907 1.77977,2.00907 0.79798,-0.0247 1.47179,-0.15099 2.02177,-0.37818 0.54963,-0.22754 0.92604,-0.41557 1.12853,-0.56444 l -0.35983,2.03411 c -0.23565,0.0991 -0.66534,0.22543 -1.28975,0.37818 -0.62407,0.15311 -1.36208,0.22966 -2.21369,0.22966 -0.0705,0 -0.16756,-0.004 -0.29139,-0.0127 -0.12418,-0.008 -0.22119,-0.0123 -0.29175,-0.0123 -2.43064,-0.13617 -3.65866,-1.56668 -3.68335,-4.29119 0,-1.63689 0.35242,-2.81023 1.05727,-3.51896 0.70485,-0.70908 1.6817,-1.07808 2.93018,-1.10701 0.83079,0 1.49648,0.0589 1.99672,0.17674 0.50024,0.11783 0.96097,0.38135 1.38289,0.79057 0.6036,0.58279 0.92392,1.64113 0.96097,3.175 0,0.26459 -0.009,0.49319 -0.0279,0.68545 -0.0183,0.19191 -0.0339,0.32738 -0.0466,0.40605 h -5.0539"
       style="fill:#304a1f;fill-opacity:1;fill-rule:nonzero;stroke:none;stroke-width:0.0352778"
       id="path62" />
    <path
       d="m 123.66329,139.22212 v 6.09565 h -2.38724 v -5.51286 c 0,-0.35984 -0.13441,-0.66569 -0.40323,-0.91793 -0.26881,-0.25188 -0.67804,-0.37818 -1.22766,-0.37818 -0.52529,0.0702 -0.87137,0.27693 -1.03894,0.62019 -0.16721,0.34325 -0.25294,0.62018 -0.25717,0.83079 v 5.35799 h -3.1997 v -8.45856 h 3.1997 v 0.68863 c 0.0332,-0.0332 0.13229,-0.11783 0.29774,-0.25436 0.1651,-0.13652 0.40711,-0.26352 0.72532,-0.38135 0.31855,-0.11783 0.71543,-0.17674 1.19062,-0.17674 0.73589,0 1.33632,0.13546 1.80164,0.40605 0.46496,0.27093 0.79763,0.59831 0.99836,0.98283 0.20038,0.38453 0.30056,0.75036 0.30056,1.09785"
       style="fill:#304a1f;fill-opacity:1;fill-rule:nonzero;stroke:none;stroke-width:0.0352778"
       id="path64" />
    <path
       d="m 74.409622,131.31425 c 0.27602,0.018 2.84124,-0.0843 4.04001,-0.89182 0.009,0.17639 -1.38895,1.33385 -2.13226,1.72649 -0.34879,0.18451 -0.98887,0.40217 -1.37347,0.43639 -0.38477,0.0339 -1.031765,-0.15064 -0.946993,-0.55809 0.03182,-0.15346 0.255903,-0.7232 0.412713,-0.71297"
       style="fill:#100f0d;fill-opacity:1;fill-rule:nonzero;stroke:none;stroke-width:0.0352778"
       id="path66" />
    <path
       d="m 54.694178,135.86191 -4.089753,-2.26695 5.076543,-2.15935 -3.630567,-2.3869 -0.02977,0.641 -1.133022,-1.43122 1.926359,0.36971 -0.674137,0.16687 4.546304,2.68322 -4.143778,2.16041 c 0,0 2.044856,1.10208 2.379324,1.17687 0,0 -0.172543,0.3803 -0.19939,0.50095 -0.03143,0.14075 -0.02812,0.54539 -0.02812,0.54539"
       style="fill:#100f0d;fill-opacity:1;fill-rule:nonzero;stroke:none;stroke-width:0.0352778"
       id="path68" />
    <path
       d="m 60.134259,139.93755 c -0.686965,0.51294 -1.075973,2.04012 -1.128219,2.72556 -0.0412,0.53975 -0.08834,0.66887 0.08615,0.87771 0.01376,0.0166 -0.03087,0.0646 -0.456,0.14429 0,0 0.573405,0.0176 0.602615,0.0385 0.441642,0.31327 0.66227,1.05058 0.558941,1.15147 -0.215688,0.21131 -2.281767,0.40005 -2.313199,-0.0349 -0.0193,-0.26494 0.03337,-0.71614 -0.02328,-0.96732 -0.06544,-0.28998 -0.1899,-0.23389 -0.196215,-0.53234 -0.01199,-0.55528 0.662129,-2.0761 0.866916,-2.58516 0.649747,-1.61466 -0.744431,-1.74731 -0.924101,-2.68852 -0.123613,-0.64735 0.345052,-0.88124 0.685553,-1.45133 -0.784225,0.7553 -1.229748,1.20545 -0.804757,2.06234 0.349885,0.70591 0.693138,0.60996 0.790011,1.74414 0.02949,0.34713 -0.675781,2.22461 -0.831497,2.52941 -0.04741,0.0924 -0.166053,0.26776 -0.166053,0.26776 -0.07359,-0.0416 -0.119909,-0.2734 -0.119909,-0.2734 0,0 -0.02533,0.53058 0.124037,0.64382 0.08611,0.066 0.249837,0.0596 0.352354,0.15628 0.154199,0.1457 0.150918,0.59831 0.108479,0.78246 -0.1137,0.49036 -0.825323,0.25259 -1.025137,0.10477 -0.399344,-0.29562 -0.998925,-1.06644 -0.849559,-1.55786 0.03926,-0.12982 0.312949,0.0113 0.432717,-0.24448 -0.125695,0.12101 -0.58734,0.055 -0.634047,0.21096 -0.155575,0.51823 0.622335,1.69863 1.064542,1.95651 0.422345,0.24589 0.832591,-0.0459 0.858238,0.32032 0.03238,0.45967 2.623643,0.48472 3.197472,-0.11924 0.103187,-0.10865 -0.69716,-1.23437 -0.827405,-1.39171 -0.268852,-0.32526 -0.53273,-0.16157 -0.483129,-0.83749 0.05334,-0.72461 0.924665,-2.40383 1.535289,-2.71286 0.390101,-0.19756 1.140989,-0.36477 1.731645,-0.6925 0.489479,-0.27129 1.220117,-0.97261 1.285698,-1.02835 -2.079448,1.46438 -2.54896,0.69321 -3.498144,1.40123"
       style="fill:#100f0d;fill-opacity:1;fill-rule:nonzero;stroke:none;stroke-width:0.0352778"
       id="path70" />
    <path
       d="m 68.468352,140.75529 c -0.386539,-0.58667 -1.903483,-1.39312 -2.398889,-1.39171 -1.161697,0.003 -1.693334,0.97967 -2.854325,1.02129 -0.834814,0.0296 -1.50675,-0.1464 -1.83762,-0.31855 -0.06297,0.0681 0.741786,0.56409 1.725719,0.63888 1.539134,0.11641 2.234494,-0.56198 3.421239,-0.56515 0.490996,-0.001 1.542027,0.25894 1.943876,0.61524"
       style="fill:#100f0d;fill-opacity:1;fill-rule:nonzero;stroke:none;stroke-width:0.0352778"
       id="path72" />
    <path
       d="m 70.390285,138.11581 c 0.447746,-0.16969 0.549452,0.59408 0.678004,0.78422 -0.11437,-0.33655 0.121673,-0.85054 -0.504649,-1.14617 -0.530683,-0.25083 -1.976084,-0.65829 -2.35271,-1.13842 -0.505742,-0.64487 0.290089,-1.93216 0.51248,-2.0962 -0.444676,0.13935 -1.637771,1.44568 -1.4986,2.23555 0.0944,0.53658 2.491635,0.97085 2.7686,1.09361 0.309387,0.13723 0.530543,0.6664 0.569278,1.07209 0.0798,0.83503 -0.296686,1.86479 -0.665163,2.38161 -0.589668,0.82691 -0.859225,1.98931 -1.748613,2.67511 -0.550122,-0.34114 -1.354314,-0.40675 -1.354314,-0.40675 -0.188384,-0.0857 0.297356,-0.7934 0.297356,-0.7934 -0.318029,0.27023 -0.598487,0.76906 -0.598487,0.76906 -0.304518,0.0268 -1.008698,0.0529 -1.139473,-0.10584 -0.130633,-0.15875 0.07976,-0.48718 0.259892,-0.81068 0.300143,-0.5394 0.951935,-1.38677 1.530173,-1.07597 0.344382,0.18556 0.892281,0.95708 1.274551,0.89464 0.261832,-0.0427 0.320816,-0.48119 0.264725,-0.9331 -0.04964,0.34537 -0.238972,0.6731 -0.517173,0.72002 -0.390419,0.0663 -0.604555,-0.66357 -0.95638,-0.85936 -0.590621,-0.32879 -1.382854,0.23354 -1.818464,0.80504 -0.448416,0.58808 -0.980475,1.30457 -0.611152,1.52047 0.272168,0.1591 1.523577,0.13864 1.825907,0.12312 0.770326,-0.0409 1.273175,0.42051 1.550141,0.52423 1.5875,-0.80504 1.626376,-2.09868 2.228568,-2.97286 0.376343,-0.54646 0.48701,-1.43228 0.405553,-2.31493 -0.03418,-0.37042 -0.195685,-0.7045 -0.40005,-0.94509"
       style="fill:#100f0d;fill-opacity:1;fill-rule:nonzero;stroke:none;stroke-width:0.0352778"
       id="path74" />
    <path
       d="m 67.177256,127.90924 c -1.760432,-0.93169 -4.799683,-0.42968 -5.110022,-0.26176 -0.670278,0.36195 -0.49403,1.46226 -0.827264,2.1911 -0.49209,1.07633 -1.633784,1.49966 -2.683157,1.87678 -0.668902,0.24059 -1.315473,0.48507 -1.752459,1.0862 -0.147849,0.20391 -0.241688,0.45121 -0.403896,0.64206 -0.267476,0.31432 -0.676486,0.42792 -1.00404,0.66569 -0.930029,0.67522 -1.04387,2.14066 -0.752405,3.3147 0.291465,1.17404 0.716033,1.62101 0.647136,2.83457 -0.0211,0.375 -0.393595,1.09749 -0.322898,1.26259 0.137936,0.32279 0.885543,0.21167 1.085356,0.49354 0.102659,0.14499 0.129399,0.27658 0.109009,0.39864 0.103081,-0.2406 0.125941,-0.49142 -0.02607,-0.6985 -0.195403,-0.2667 -0.78299,-0.17569 -0.918033,-0.48084 -0.06932,-0.15628 0.521052,-0.90346 0.56582,-1.25554 0.144851,-1.14123 -0.563069,-1.57727 -0.848466,-2.68781 -0.285256,-1.11054 -0.352778,-2.41547 0.557565,-3.0547 0.320534,-0.22472 1.199163,-0.0113 1.460994,-0.30904 0.158609,-0.18027 0.08738,-0.85548 0.232199,-1.04845 0.427743,-0.56868 0.868574,-0.57503 1.534724,-0.76765 1.141166,-0.32984 2.59581,-0.46425 3.077563,-1.48237 0.326179,-0.68933 -0.167569,-2.33609 0.469653,-2.71286 0.808779,-0.47837 3.212183,-0.28293 4.393989,0.31468 0.152717,-0.16087 0.354718,-0.2787 0.514703,-0.32103"
       style="fill:#100f0d;fill-opacity:1;fill-rule:nonzero;stroke:none;stroke-width:0.0352778"
       id="path76" />
    <path
       d="m 73.660783,132.23712 c -0.08957,-0.11501 -0.287303,-0.3295 -0.40693,-0.41064 -0.361315,-0.24588 -0.821019,-0.3556 -1.326621,-0.37323 -0.04879,-0.15805 -0.421146,-0.72285 -0.649746,-0.96379 -0.691515,-0.72919 -2.306143,-1.73144 -2.502923,-1.82492 -0.123613,-0.0586 0.05786,0.63112 0.484928,0.79375 0.84956,0.3242 1.871099,0.88618 2.457592,1.99354 -0.419488,0.007 -0.688905,0.13194 -0.688905,0.13194 0,0 1.439792,-0.14922 2.146724,0.73272 0.798724,0.9966 0.599581,2.54247 0.516078,3.8668 -0.04935,0.78493 -0.09948,2.57387 -0.231387,2.73897 -0.152259,0.19085 -0.381846,0.25012 -0.6084,0.26776 -0.403754,0.0318 -1.381478,0.10442 -1.464169,0.0924 0.04674,0.0861 0.101141,0.1651 0.178752,0.21731 0.132962,0.0893 1.318366,0.002 1.749425,-0.0314 0.24183,-0.0183 0.499393,-0.11607 0.632214,-0.33691 0.153952,-0.25611 0.211557,-2.0006 0.264477,-2.82645 0.089,-1.39312 0.27725,-3.00073 -0.551109,-4.06788"
       style="fill:#100f0d;fill-opacity:1;fill-rule:nonzero;stroke:none;stroke-width:0.0352778"
       id="path78" />
    <path
       d="m 68.713074,131.6187 c -0.850794,-0.22966 -1.375128,-0.61419 -1.90567,-1.3328 -0.342583,-0.46425 -0.384211,-1.20473 -0.0689,-1.72931 0.281517,-0.46779 2.2612,-1.37125 3.415171,-1.43193 0,0 -0.638034,0.25788 -0.949995,0.45438 -0.498158,0.31433 -0.9918,0.90981 -0.786448,1.49507 0.130634,0.37324 0.499252,0.57468 0.848325,0.69815 0.349039,0.12347 0.727604,0.21414 0.993705,0.48895 0.266347,0.27517 0.170991,1.29646 -0.187431,1.41499 -0.273403,0.0907 -1.017835,0.0346 -1.358759,-0.0575"
       style="fill:#100f0d;fill-opacity:1;fill-rule:nonzero;stroke:none;stroke-width:0.0352778"
       id="path80" />
    <path
       d="m 70.287627,133.81404 c 0.233433,0.0445 0.481895,0.24235 0.645478,0.47942 0,0 1.559383,0.043 1.571519,0.0564 0.02356,0.0261 -1.510736,0.0547 -1.510736,0.0547 0.122238,0.20778 0.450462,0.47625 0.902476,0.56515 -0.19431,0.0416 -0.723053,0.0307 -0.943821,-0.0219 -0.472687,-0.11183 -0.48313,-0.54327 -0.48313,-0.54327 -0.128164,-0.006 -1.469707,-0.0434 -1.469707,-0.0434 l 1.458101,-0.0653 c -0.06008,-0.45014 -0.17018,-0.48189 -0.17018,-0.48189"
       style="fill:#304a1f;fill-opacity:1;fill-rule:nonzero;stroke:none;stroke-width:0.0352778"
       id="path82" />
  </g>
</svg>
