<?xml version="1.0" encoding="UTF-8" standalone="no"?>
<!-- Created with Inkscape (http://www.inkscape.org/) -->

<svg
   width="103.72126mm"
   height="18.533806mm"
   viewBox="0 0 103.72126 18.533806"
   version="1.1"
   id="svg1"
   inkscape:version="1.3 (0e150ed6c4, 2023-07-21)"
   sodipodi:docname="logo-light.svg"
   xmlns:inkscape="http://www.inkscape.org/namespaces/inkscape"
   xmlns:sodipodi="http://sodipodi.sourceforge.net/DTD/sodipodi-0.dtd"
   xmlns="http://www.w3.org/2000/svg"
   xmlns:svg="http://www.w3.org/2000/svg">
  <sodipodi:namedview
     id="namedview1"
     pagecolor="#ffffff"
     bordercolor="#000000"
     borderopacity="0.25"
     inkscape:showpageshadow="2"
     inkscape:pageopacity="0.0"
     inkscape:pagecheckerboard="0"
     inkscape:deskcolor="#d1d1d1"
     inkscape:document-units="mm"
     inkscape:zoom="4.0515992"
     inkscape:cx="171.4138"
     inkscape:cy="100.57757"
     inkscape:window-width="2560"
     inkscape:window-height="1351"
     inkscape:window-x="2391"
     inkscape:window-y="330"
     inkscape:window-maximized="1"
     inkscape:current-layer="layer1" />
  <defs
     id="defs1" />
  <g
     inkscape:label="Réteg 1"
     inkscape:groupmode="layer"
     id="layer1"
     transform="translate(-44.185431,-116.41666)">
    <path
       d="m 122.37299,124.75598 h 2.15794 c 0.92604,0 1.4097,0.40534 1.45097,1.21567 0,0.55809 -0.12382,0.94333 -0.37182,1.1564 -0.24801,0.21273 -0.63254,0.31927 -1.15359,0.31927 h -2.0835 z m 3.31434,2.58833 c 0.40429,-0.30163 0.54857,-0.76518 0.54857,-1.34761 0,-0.87383 -0.58279,-1.4598 -1.54975,-1.4598 h -2.5714 v 3.13302 h 2.14066 c 0.51929,0 1.05763,-0.0462 1.43192,-0.32561"
       style="fill:#e3dedb;fill-opacity:1;fill-rule:nonzero;stroke:none;stroke-width:0.0352778"
       id="path216" />
    <path
       d="m 127.5186,133.74864 c -0.95356,0.37465 -2.16394,0.56197 -3.63043,0.56197 h -4.90785 l -0.042,-8.25853 c 1.028,-0.0131 2.83069,-0.11359 2.83069,-0.11359 l -3.09033,-1.11196 -34.783894,0.18839 c 0.771172,-0.48613 34.502024,-2.06658 34.502024,-2.06658 l 3.5e-4,0.005 h 6.09671 c 1.21108,0 2.15759,0.20355 2.83915,0.60995 0.68192,0.4064 1.03505,1.10561 1.05975,2.09727 0,1.0668 -0.34185,1.62983 -1.14688,2.06586 -0.66005,0.35737 -3.22404,0.63006 -3.95747,0.63712 1.74026,-0.0169 3.47769,0.15557 4.55013,0.81597 0.69109,0.42581 1.01424,1.11443 1.05093,1.93429 0.0617,1.39453 -0.41734,2.26024 -1.3709,2.63525 z m -1.85455,-5.42467 c 0.73589,0 1.34514,-0.14781 2.01083,-0.514 0.6657,-0.36583 0.99836,-1.10454 0.99836,-2.21685 -0.0247,-1.03329 -0.37923,-1.76213 -1.06327,-2.18581 -0.68439,-0.42369 -1.63406,-0.63571 -2.84974,-0.63571 h -6.11822 v -0.005 c 0,0 -35.435121,1.55433 -35.77026,2.37419 l 35.76744,-0.0109 h 7e-4 v 0 l 2.24755,0.6858 c 0,0 -1.21567,0.004 -2.24755,0.0169 v 8.77676 h 5.51286 c 1.47179,0 2.68605,-0.19544 3.64314,-0.58597 0.95708,-0.39088 1.43545,-1.31374 1.43545,-2.76895 -0.0328,-1.93075 -1.16135,-2.93088 -3.56729,-2.93088"
       style="fill:#e3dedb;fill-opacity:1;fill-rule:nonzero;stroke:none;stroke-width:0.0352778"
       id="path218" />
    <path
       d="m 125.89512,132.31847 c -0.31009,0.20885 -0.75424,0.31292 -1.33315,0.31292 h -2.18898 v -3.175 h 2.1082 c 1.25271,0 1.87924,0.54186 1.87924,1.62489 0,0.61595 -0.15522,1.02835 -0.46531,1.23719 z m -1.64924,-3.07234 -2.12019,-0.0102 v 3.60292 h 2.70757 c 0.76588,-0.0505 1.09749,-0.19508 1.36172,-0.47731 0.27975,-0.29774 0.43215,-0.60536 0.40605,-1.37124 -0.0349,-1.03858 -0.36513,-1.7773 -2.35515,-1.74414"
       style="fill:#e3dedb;fill-opacity:1;fill-rule:nonzero;stroke:none;stroke-width:0.0352778"
       id="path220" />
    <path
       d="m 138.50128,134.37411 h -1.89053 l 0.003,-0.91052 c 0,0 -0.50977,0.37359 -0.82656,0.51753 -0.266,0.12029 -0.55351,0.22577 -0.9779,0.34325 -0.42439,0.11747 -0.92216,0.17604 -1.49331,0.17604 -0.98601,-0.0691 -1.69686,-0.34149 -2.13289,-0.81739 -0.43604,-0.4759 -0.65405,-0.98531 -0.65405,-1.52823 v -5.70336 h 2.60844 l 0.008,5.08317 c -0.0557,1.45309 0.8255,1.70815 1.81116,1.67676 0.93133,-0.0296 1.45238,-0.44592 1.61713,-1.2372 0.0296,-0.14111 0.06,-1.42346 0.06,-1.42346 l -0.008,-4.1155 h 1.87572 z m -2.15088,-8.2229 v 5.35799 c 0,0.26882 -0.0857,0.55492 -0.25718,0.85866 -0.1718,0.3041 -0.52634,0.5013 -1.06362,0.59232 -1.07069,0 -1.6062,-0.4318 -1.6062,-1.29611 v -5.51286 h -3.1997 v 6.1207 c 0,0.58279 0.23672,1.12959 0.71014,1.64006 0.47308,0.51082 1.24531,0.80328 2.31599,0.87771 0.62018,0 1.16064,-0.0631 1.62172,-0.18909 0.46073,-0.12629 0.82973,-0.26564 1.10666,-0.41874 0.23566,-0.13124 0.35666,-0.20426 0.37219,-0.22402 v 0.65194 h 2.3876 v -8.45856 h -2.3876"
       style="fill:#e3dedb;fill-opacity:1;fill-rule:nonzero;stroke:none;stroke-width:0.0352778"
       id="path222" />
    <path
       d="m 142.95863,134.31061 h -2.53753 v -11.21869 h 2.53753 z m -2.87514,-11.53901 v 11.83817 h 3.19969 V 122.7716 h -3.19969"
       style="fill:#e3dedb;fill-opacity:1;fill-rule:nonzero;stroke:none;stroke-width:0.0352778"
       id="path224" />
    <path
       d="m 147.58213,134.28556 h -2.53753 v -11.21868 h 2.53753 z M 144.707,122.74655 v 11.83817 h 3.19969 V 122.74655 H 144.707"
       style="fill:#e3dedb;fill-opacity:1;fill-rule:nonzero;stroke:none;stroke-width:0.0352778"
       id="path226" />
    <path
       d="m 80.533539,133.91938 c -0.437092,0.17321 -1.011767,0.33161 -1.723672,0.47519 -0.711906,0.14358 -1.493661,0.2152 -2.344914,0.2152 -1.949098,0 -3.320345,-0.51294 -4.112684,-1.53953 -0.792339,-1.02623 -1.188508,-2.62749 -1.188508,-4.80377 0.0194,-0.9137 0.07444,-1.50354 0.296333,-2.19534 1.017058,-0.0155 2.880431,-0.17886 2.880431,-0.17886 L 71.918,124.98705 c 1.855964,-3.64455 8.576381,-1.79776 8.576381,-1.79776 l 0.387703,1.97838 c -0.0039,0 -1.853495,-0.8382 -4.074584,-0.60925 -0.854428,0.0878 -1.688042,0.59232 -2.079625,1.15535 -0.476603,0.68545 -0.61842,1.95439 -0.61842,2.97462 0,0.88865 -0.01517,2.58163 0.536575,3.3528 0.275167,0.38488 0.760236,0.90911 1.732845,0.92816 0.525286,0.01 1.607608,-0.0614 2.453922,-0.37465 l -0.0018,-1.8034 c -0.362302,-0.80645 -1.219905,-1.1423 -1.219905,-1.1423 l 3.513667,0.01 0.01834,3.98957 c 0,0.036 -0.171803,0.0974 -0.6096,0.27093 z m -1.887714,-4.51873 v -7.1e-4 H 76.52175 c 0,0 1.612547,0.54857 2.026356,1.43828 l 0.0071,1.57939 c -0.144639,0.0536 -0.362303,0.10653 -0.740833,0.18908 -0.378178,0.0829 -0.844198,0.12418 -1.398411,0.12418 -0.61595,-0.0579 -1.067506,-0.28751 -1.354667,-0.68827 -0.287514,-0.40111 -0.463197,-0.88088 -0.527403,-1.43898 -0.06385,-0.55809 -0.09596,-1.29787 -0.09596,-2.22003 0,-1.05833 0.189089,-1.89018 0.567267,-2.4959 0.378531,-0.60572 1.018117,-0.94968 1.919464,-1.03223 0.372181,-0.0332 0.634647,-0.0497 0.7874,-0.0497 0.632531,0 1.201914,0.061 1.708503,0.18274 0.506589,0.12206 0.935214,0.25753 1.286581,0.4064 0.351719,0.14887 0.529166,0.22331 0.5334,0.22331 l -0.508353,-2.59222 c 0,-0.0166 -0.201436,-0.0723 -0.604661,-0.16756 -0.403225,-0.0949 -0.936272,-0.17957 -1.599848,-0.254 -0.663575,-0.0744 -1.427339,-0.11184 -2.291291,-0.11184 -2.331509,0.0632 -3.901017,0.95039 -4.718403,2.65148 l 2.202744,0.67204 c 0,0 -1.413228,0.004 -2.485672,0.0205 -0.233539,0.71719 -0.361245,1.54975 -0.381353,2.49766 0,2.25707 0.417336,3.91795 1.252714,4.98264 0.835025,1.06433 2.280003,1.59667 4.334581,1.59667 0.897114,0 1.72085,-0.0744 2.471208,-0.22331 0.750359,-0.14852 1.355725,-0.31291 1.816806,-0.49283 0.461081,-0.17992 0.691444,-0.28822 0.691444,-0.32561 v -4.47111 h -2.774597"
       style="fill:#cdde87;fill-opacity:1;fill-rule:nonzero;stroke:none;stroke-width:0.0352778"
       id="path228" />
    <path
       d="m 86.90647,127.78563 c -0.754944,0.39652 -1.138767,0.93663 -1.140531,1.88525 l -0.02999,4.68065 h -2.630664 l -0.0074,-7.94067 h 2.668058 l 0.0074,1.30774 c 0.243769,-0.3817 1.050925,-1.7593 3.291769,-1.42628 l 0.245181,1.39912 c -0.432153,-0.17145 -1.792464,-0.22719 -2.403828,0.0942 z m 2.36467,-1.65911 c -0.198614,-0.0497 -0.494242,-0.0744 -0.886884,-0.0744 -0.421569,0 -0.795867,0.0497 -1.122186,0.14887 -0.289631,0.0868 -0.521053,0.18909 -0.694619,0.30692 -0.173567,0.11783 -0.305859,0.23354 -0.396875,0.34713 -0.09102,0.11395 -0.140759,0.17498 -0.148873,0.1831 v -0.88689 h -3.199694 v 8.45856 h 3.199694 v -5.00451 c 0,-0.75212 0.363714,-1.29399 1.091495,-1.62454 0.289278,-0.13653 0.644878,-0.20461 1.066447,-0.20461 0.479778,0 0.952853,0.0765 1.420284,0.2293 l -0.328789,-1.87889"
       style="fill:#cdde87;fill-opacity:1;fill-rule:nonzero;stroke:none;stroke-width:0.0352778"
       id="path230" />
    <path
       d="m 98.239457,130.86115 -5.085645,0.006 c -0.01658,1.97309 0.693208,2.64372 2.375606,2.55976 0.655461,-0.0325 1.624189,-0.22331 2.464858,-0.61454 l -0.195086,1.19027 c -0.216958,0.0924 -1.872897,0.60678 -3.271308,0.53516 -0.06421,-0.004 -0.153812,-0.004 -0.267759,-0.0116 -0.113947,-0.008 -0.2032,-0.0116 -0.267405,-0.0116 -2.232025,-0.12665 -3.359503,-1.4538 -3.382081,-3.98145 0,-1.51906 0.323497,-2.60738 0.970844,-3.26531 0.646995,-0.65793 1.543756,-1.00048 2.690284,-1.02694 0.763058,0 1.373717,0.0547 1.833386,0.16369 0.459317,0.10936 0.937684,0.36548 1.325034,0.74507 1.089377,1.18004 0.826205,3.53307 0.809272,3.71122 z m -0.5842,-3.97193 c -0.421922,-0.40922 -0.88265,-0.67274 -1.382889,-0.79057 -0.500239,-0.11783 -1.165931,-0.17674 -1.997075,-0.17674 -1.248481,0.0289 -2.22497,0.39793 -2.92982,1.10701 -0.70485,0.70873 -1.057275,1.88207 -1.057275,3.51896 0.02469,2.72451 1.252361,4.15502 3.683353,4.29119 0.0702,0 0.167569,0.004 0.291394,0.0123 0.124178,0.008 0.221192,0.0127 0.291395,0.0127 0.851958,0 1.589617,-0.0766 2.214033,-0.22966 0.624064,-0.15275 1.0541,-0.27905 1.289756,-0.37818 l 0.359833,-2.03411 c -0.202847,0.14887 -0.578908,0.3369 -1.128889,0.56444 -0.549627,0.22719 -1.223433,0.35348 -2.021416,0.37818 -1.186392,0 -1.779764,-0.66957 -1.779764,-2.00907 h 5.053894 c 0.01235,-0.0787 0.02787,-0.21414 0.04657,-0.40605 0.0187,-0.19226 0.02787,-0.42086 0.02787,-0.68545 -0.03704,-1.53387 -0.357717,-2.59221 -0.960967,-3.175"
       style="fill:#cdde87;fill-opacity:1;fill-rule:nonzero;stroke:none;stroke-width:0.0352778"
       id="path232" />
    <path
       d="m 93.487893,129.6797 c 0,-1.26895 0.508352,-1.90359 1.525411,-1.90359 0.558094,0.0455 0.930275,0.23883 1.116189,0.57961 0.186266,0.34114 0.279047,0.78246 0.279047,1.32398 z m 1.410053,-2.19428 c -1.290814,0.002 -1.861256,0.93909 -1.742017,2.4765 h 3.553178 c 0,-0.50271 -0.0755,-1.2767 -0.245886,-1.59315 -0.171098,-0.31644 -0.425098,-0.88547 -1.565275,-0.88335"
       style="fill:#cdde87;fill-opacity:1;fill-rule:nonzero;stroke:none;stroke-width:0.0352778"
       id="path234" />
    <path
       d="m 107.41168,130.86115 -5.08565,0.006 c -0.0166,1.97309 0.69321,2.64372 2.37561,2.56011 0.65546,-0.0328 1.62419,-0.22366 2.46486,-0.61489 l -0.19509,1.19027 c -0.2166,0.0924 -1.87289,0.60678 -3.27131,0.53516 -0.0642,-0.004 -0.15381,-0.004 -0.26775,-0.0116 -0.11395,-0.008 -0.2032,-0.0116 -0.26741,-0.0116 -2.23202,-0.12665 -3.359503,-1.4538 -3.38208,-3.98145 0,-1.51906 0.3235,-2.60738 0.97084,-3.26531 0.647,-0.65793 1.54376,-1.00048 2.69029,-1.02694 0.76306,0 1.37371,0.0547 1.83338,0.16369 0.45932,0.10936 0.93769,0.36548 1.32504,0.74507 1.08938,1.18004 0.8262,3.53307 0.80927,3.71122 z m -0.5842,-3.97193 c -0.42192,-0.40922 -0.88265,-0.67274 -1.38289,-0.79057 -0.50024,-0.11783 -1.16593,-0.17674 -1.99707,-0.17674 -1.24849,0.0289 -2.22497,0.39793 -2.92982,1.10701 -0.704854,0.70873 -1.057279,1.88207 -1.057279,3.51896 0.02469,2.72451 1.252359,4.15502 3.683349,4.29119 0.0702,0 0.16757,0.004 0.2914,0.0123 0.12418,0.008 0.22119,0.0127 0.29139,0.0127 0.85196,0 1.58962,-0.0766 2.21404,-0.22966 0.62406,-0.15275 1.0541,-0.27905 1.28975,-0.37818 l 0.35984,-2.03411 c -0.20285,0.14887 -0.57891,0.3369 -1.12889,0.56444 -0.54963,0.22719 -1.22344,0.35348 -2.02142,0.37818 -1.18639,0 -1.77976,-0.66957 -1.77976,-2.00907 h 5.05389 c 0.0123,-0.0787 0.0279,-0.21414 0.0466,-0.40605 0.0187,-0.19226 0.0279,-0.42086 0.0279,-0.68545 -0.037,-1.53387 -0.35772,-2.59221 -0.96097,-3.175"
       style="fill:#cdde87;fill-opacity:1;fill-rule:nonzero;stroke:none;stroke-width:0.0352778"
       id="path236" />
    <path
       d="m 102.66012,129.6797 c 0,-1.26895 0.50835,-1.90359 1.52541,-1.90359 0.55809,0.0455 0.93027,0.23883 1.11619,0.57961 0.18626,0.34114 0.27904,0.78246 0.27904,1.32398 z m 1.41005,-2.19428 c -1.29082,0.002 -1.86126,0.93909 -1.74202,2.4765 h 3.55318 c 0,-0.50271 -0.0755,-1.2767 -0.24589,-1.59315 -0.17109,-0.31644 -0.42509,-0.88547 -1.56527,-0.88335"
       style="fill:#cdde87;fill-opacity:1;fill-rule:nonzero;stroke:none;stroke-width:0.0352778"
       id="path238" />
    <path
       d="m 116.91587,134.31061 h -1.72156 l -0.0113,-5.1816 c 0.0226,-0.82162 -0.41169,-1.68169 -1.88912,-1.68169 -1.30775,0 -1.67676,1.21885 -1.6884,1.84362 l 0.008,5.01967 h -2.5788 v -7.87788 h 2.64936 l 0.001,1.13877 c 0.0307,-0.0307 0.39017,-0.47061 0.54292,-0.59761 0.15311,-0.127 0.46461,-0.37853 0.75953,-0.48824 0.29457,-0.10972 0.61842,-0.16828 1.05834,-0.16828 0.68121,0 1.23719,0.12594 1.66793,0.37818 0.43039,0.25224 0.73836,0.55739 0.92392,0.91546 0.18557,0.35807 0.27835,0.69885 0.27835,1.02235 z m 0.0279,-6.89434 c -0.20038,-0.38452 -0.53305,-0.7119 -0.99837,-0.98283 -0.46496,-0.27059 -1.06538,-0.40605 -1.80128,-0.40605 -0.47554,0 -0.87242,0.0589 -1.19062,0.17674 -0.31856,0.11783 -0.56022,0.24483 -0.72567,0.38135 -0.16545,0.13653 -0.26458,0.22119 -0.29774,0.25436 v -0.68863 h -3.1997 v 8.45856 h 3.1997 v -5.35799 c 0.004,-0.21061 0.09,-0.48754 0.25753,-0.83079 0.16721,-0.34326 0.51364,-0.54999 1.03857,-0.62019 0.54998,0 0.95921,0.1263 1.22802,0.37818 0.26847,0.25224 0.40288,0.55809 0.40288,0.91793 v 5.51286 h 2.3876 v -6.09565 c 0,-0.34749 -0.10019,-0.71332 -0.30092,-1.09785"
       style="fill:#cdde87;fill-opacity:1;fill-rule:nonzero;stroke:none;stroke-width:0.0352778"
       id="path240" />
    <path
       d="m 67.990524,120.60625 c 0.276225,0.018 2.841273,-0.0843 4.040365,-0.89182 0.0088,0.17639 -1.389239,1.33385 -2.13219,1.72649 -0.348897,0.18451 -0.989188,0.40217 -1.373716,0.43639 -0.384881,0.0339 -1.031875,-0.15064 -0.946856,-0.55809 0.03175,-0.15346 0.255764,-0.7232 0.412397,-0.71297"
       style="fill:#e3dedb;fill-opacity:1;fill-rule:nonzero;stroke:none;stroke-width:0.0352778"
       id="path242" />
    <path
       d="m 48.275184,125.15391 -4.089753,-2.26695 5.076826,-2.15935 -3.63079,-2.3869 -0.02963,0.641 -1.133122,-1.43122 1.926519,0.36971 -0.674158,0.16687 4.545895,2.68322 -4.143728,2.16041 c 0,0 2.045053,1.10208 2.379133,1.17687 0,0 -0.172155,0.3803 -0.198967,0.50095 -0.0314,0.14075 -0.02822,0.54539 -0.02822,0.54539"
       style="fill:#e3dedb;fill-opacity:1;fill-rule:nonzero;stroke:none;stroke-width:0.0352778"
       id="path244" />
    <path
       d="m 53.715371,129.22955 c -0.686859,0.51294 -1.076325,2.04012 -1.128184,2.72556 -0.04127,0.53975 -0.08819,0.66887 0.08608,0.87771 0.01376,0.0166 -0.03069,0.0646 -0.455789,0.14429 0,0 0.573264,0.0176 0.602545,0.0384 0.441677,0.31327 0.662164,1.05058 0.5588,1.15147 -0.2159,0.21131 -2.281767,0.40005 -2.313164,-0.0349 -0.0194,-0.26494 0.03351,-0.71614 -0.02328,-0.96732 -0.06562,-0.28998 -0.189794,-0.23389 -0.196144,-0.53234 -0.01199,-0.55528 0.662164,-2.0761 0.866775,-2.58516 0.649817,-1.61466 -0.744361,-1.74731 -0.923925,-2.68852 -0.123825,-0.64735 0.344664,-0.88124 0.685447,-1.45133 -0.784225,0.7553 -1.229783,1.20545 -0.804686,2.06234 0.349603,0.70591 0.693208,0.60996 0.789869,1.74414 0.02963,0.34713 -0.675922,2.22461 -0.831497,2.52941 -0.04727,0.0924 -0.166158,0.26776 -0.166158,0.26776 -0.07373,-0.0416 -0.119945,-0.2734 -0.119945,-0.2734 0,0 -0.02505,0.53058 0.124178,0.64382 0.08608,0.066 0.25012,0.0596 0.352425,0.15628 0.154164,0.1457 0.150989,0.59831 0.108303,0.78246 -0.113594,0.49036 -0.825147,0.25259 -1.025172,0.10477 -0.399345,-0.29562 -0.998714,-1.06644 -0.849489,-1.55786 0.03916,-0.12982 0.313266,0.0113 0.432858,-0.24448 -0.125942,0.12101 -0.587022,0.055 -0.633942,0.21096 -0.155927,0.51823 0.621948,1.69863 1.064331,1.95651 0.422628,0.24589 0.832908,-0.0459 0.858308,0.32032 0.03246,0.45967 2.623256,0.48472 3.197226,-0.11924 0.103363,-0.10865 -0.696737,-1.23437 -0.826912,-1.39171 -0.269169,-0.32526 -0.533047,-0.16157 -0.483305,-0.83749 0.05327,-0.72461 0.92463,-2.40383 1.535289,-2.71286 0.390172,-0.19756 1.140883,-0.36477 1.731433,-0.6925 0.489656,-0.27129 1.220259,-0.97261 1.285875,-1.02835 -2.079625,1.46438 -2.549172,0.69321 -3.498144,1.40123"
       style="fill:#e3dedb;fill-opacity:1;fill-rule:nonzero;stroke:none;stroke-width:0.0352778"
       id="path246" />
    <path
       d="m 62.049393,130.04729 c -0.386644,-0.58667 -1.903589,-1.39312 -2.398889,-1.39171 -1.161697,0.003 -1.693686,0.97967 -2.854678,1.02129 -0.834319,0.0296 -1.506361,-0.1464 -1.837266,-0.31855 -0.06315,0.0681 0.741891,0.56409 1.725789,0.63888 1.539169,0.11641 2.234494,-0.56198 3.421239,-0.56515 0.491066,-0.001 1.541992,0.25894 1.943805,0.61524"
       style="fill:#e3dedb;fill-opacity:1;fill-rule:nonzero;stroke:none;stroke-width:0.0352778"
       id="path248" />
    <path
       d="m 63.971327,127.40781 c 0.448028,-0.16969 0.549628,0.59408 0.678039,0.78422 -0.1143,-0.33655 0.121708,-0.85054 -0.504825,-1.14617 -0.530578,-0.25083 -1.975909,-0.65829 -2.352675,-1.13842 -0.505531,-0.64487 0.290336,-1.93216 0.512586,-2.0962 -0.4445,0.13935 -1.637595,1.44568 -1.498953,2.23555 0.0949,0.53658 2.492022,0.97085 2.768953,1.09361 0.309386,0.13723 0.530578,0.6664 0.569383,1.07209 0.07973,0.83503 -0.296686,1.86479 -0.664986,2.38161 -0.589844,0.82691 -0.859367,1.98931 -1.748719,2.67511 -0.550334,-0.34114 -1.354314,-0.40675 -1.354314,-0.40675 -0.188737,-0.0857 0.297038,-0.7934 0.297038,-0.7934 -0.317852,0.27023 -0.598311,0.76906 -0.598311,0.76906 -0.304447,0.0268 -1.008591,0.0529 -1.139472,-0.10584 -0.130528,-0.15875 0.07973,-0.48718 0.259997,-0.81068 0.300214,-0.5394 0.951795,-1.38677 1.529998,-1.07597 0.344311,0.18556 0.892175,0.95708 1.274586,0.89464 0.261761,-0.0427 0.320675,-0.48119 0.264583,-0.9331 -0.04939,0.34537 -0.23883,0.6731 -0.517172,0.72002 -0.390172,0.0663 -0.604309,-0.66357 -0.956381,-0.85936 -0.59055,-0.32879 -1.382536,0.23354 -1.818217,0.80504 -0.44838,0.58808 -0.980369,1.30457 -0.611011,1.52047 0.271992,0.1591 1.523295,0.13864 1.825625,0.12312 0.770467,-0.0409 1.273176,0.42051 1.550106,0.52423 1.5875,-0.80504 1.626306,-2.09868 2.228497,-2.97286 0.376767,-0.54646 0.487187,-1.43228 0.405695,-2.31493 -0.03422,-0.37042 -0.195792,-0.7045 -0.40005,-0.94509"
       style="fill:#e3dedb;fill-opacity:1;fill-rule:nonzero;stroke:none;stroke-width:0.0352778"
       id="path250" />
    <path
       d="m 60.758579,117.20124 c -1.760714,-0.93169 -4.799894,-0.42968 -5.110339,-0.26176 -0.670278,0.36195 -0.493889,1.46226 -0.826911,2.1911 -0.492478,1.07633 -1.634067,1.49966 -2.683581,1.87678 -0.668514,0.24059 -1.315155,0.48507 -1.752247,1.0862 -0.148167,0.20391 -0.241653,0.45121 -0.403931,0.64206 -0.267405,0.31432 -0.676627,0.42792 -1.004005,0.66569 -0.930275,0.67522 -1.04387,2.14066 -0.752475,3.3147 0.291394,1.17404 0.716139,1.62101 0.646994,2.83457 -0.02081,0.375 -0.393347,1.09749 -0.322791,1.26259 0.137936,0.32279 0.885472,0.21167 1.085144,0.49354 0.102658,0.14499 0.129822,0.27658 0.109361,0.39864 0.103011,-0.2406 0.125589,-0.49142 -0.02611,-0.6985 -0.195439,-0.2667 -0.783167,-0.17569 -0.918281,-0.48084 -0.06914,-0.15628 0.521406,-0.90346 0.566208,-1.25554 0.144639,-1.14123 -0.563386,-1.57727 -0.848783,-2.68781 -0.285044,-1.11054 -0.352778,-2.41547 0.557742,-3.0547 0.320675,-0.22472 1.199091,-0.0113 1.460853,-0.30904 0.15875,-0.18027 0.08749,-0.85548 0.232127,-1.04845 0.427567,-0.56868 0.868539,-0.57503 1.534584,-0.76765 1.141236,-0.32984 2.596092,-0.46425 3.077986,-1.48237 0.325967,-0.68933 -0.167569,-2.33609 0.469547,-2.71286 0.80892,-0.47837 3.212042,-0.28293 4.394201,0.31468 0.1524,-0.16087 0.354541,-0.2787 0.514702,-0.32103"
       style="fill:#e3dedb;fill-opacity:1;fill-rule:nonzero;stroke:none;stroke-width:0.0352778"
       id="path252" />
    <path
       d="m 67.24193,121.52912 c -0.08961,-0.11501 -0.287514,-0.3295 -0.407106,-0.41064 -0.361244,-0.24588 -0.820914,-0.3556 -1.326444,-0.37323 -0.04868,-0.15805 -0.421217,-0.72285 -0.649817,-0.96379 -0.691444,-0.72919 -2.306108,-1.73144 -2.502958,-1.82492 -0.123825,-0.0586 0.05786,0.63112 0.485069,0.79375 0.849489,0.3242 1.871133,0.88618 2.45745,1.99354 -0.419453,0.007 -0.688622,0.13194 -0.688622,0.13194 0,0 1.439686,-0.14922 2.146653,0.73272 0.798336,0.9966 0.599369,2.54247 0.516114,3.8668 -0.04939,0.78493 -0.09984,2.57387 -0.231775,2.73897 -0.152047,0.19085 -0.381706,0.25012 -0.608189,0.26776 -0.403931,0.0317 -1.381478,0.10442 -1.464381,0.0924 0.04692,0.0861 0.101247,0.1651 0.178859,0.21731 0.132997,0.0893 1.31833,0.002 1.749425,-0.0314 0.242005,-0.0183 0.49918,-0.11607 0.632177,-0.33691 0.154164,-0.25611 0.211667,-2.0006 0.264584,-2.82645 0.0889,-1.39312 0.277283,-3.00073 -0.551039,-4.06788"
       style="fill:#e3dedb;fill-opacity:1;fill-rule:nonzero;stroke:none;stroke-width:0.0352778"
       id="path254" />
    <path
       d="m 62.294221,120.9107 c -0.8509,-0.22966 -1.375128,-0.61419 -1.905705,-1.3328 -0.342548,-0.46425 -0.384175,-1.20473 -0.06915,-1.72931 0.281517,-0.46779 2.261659,-1.37125 3.415242,-1.43193 0,0 -0.637822,0.25788 -0.949678,0.45438 -0.498122,0.31433 -0.992011,0.90981 -0.786694,1.49507 0.130527,0.37324 0.49918,0.57468 0.84843,0.69815 0.34925,0.12347 0.727428,0.21414 0.993775,0.48895 0.266348,0.27517 0.170745,1.29646 -0.187325,1.41499 -0.273755,0.0907 -1.018116,0.0346 -1.3589,-0.0575"
       style="fill:#e3dedb;fill-opacity:1;fill-rule:nonzero;stroke:none;stroke-width:0.0352778"
       id="path256" />
    <path
       d="m 63.868669,123.10604 c 0.233538,0.0445 0.481894,0.24235 0.645583,0.47942 0,0 1.559278,0.043 1.571272,0.0564 0.02364,0.0261 -1.510594,0.0547 -1.510594,0.0547 0.122414,0.20778 0.450497,0.47625 0.902758,0.56515 -0.194733,0.0416 -0.723194,0.0307 -0.944033,-0.0219 -0.472723,-0.11183 -0.482953,-0.54327 -0.482953,-0.54327 -0.128411,-0.006 -1.469672,-0.0434 -1.469672,-0.0434 l 1.457677,-0.0653 c -0.05962,-0.45014 -0.170038,-0.48189 -0.170038,-0.48189"
       style="fill:#cdde87;fill-opacity:1;fill-rule:nonzero;stroke:none;stroke-width:0.0352778"
       id="path258" />
  </g>
</svg>
